<svg width="96" height="96" viewBox="0 0 96 96" fill="none" xmlns="http://www.w3.org/2000/svg">
<mask id="mask0_2364_973" style="mask-type:luminance" maskUnits="userSpaceOnUse" x="7" y="7" width="81" height="81">
<path d="M86.4449 56.3852C91.2913 34.9372 77.833 13.6215 56.3851 8.77518C34.9372 3.92883 13.6214 17.3871 8.77508 38.835C3.92874 60.2829 17.387 81.5987 38.8349 86.445C60.2829 91.2914 81.5986 77.8331 86.4449 56.3852Z" fill="white"/>
</mask>
<g mask="url(#mask0_2364_973)">
<path d="M39.6703 13.7199C39.6703 13.7199 45.2629 6.15204 55.1721 11.2017C66.0362 16.738 60.1655 28.6717 60.1655 28.6717L36.8184 24.2488L39.6703 13.7199Z" fill="#1E0B02"/>
<path d="M35.0002 28.7291C35.0002 28.7291 28.8928 16.7369 39.6696 13.7188L41.6068 20.1507L35.0002 28.7291Z" fill="#1E0B02"/>
<path d="M40.1781 34.2664C40.2457 36.6613 38.3592 38.6584 35.9643 38.726C33.5693 38.7936 31.5723 36.9071 31.5047 34.5122C31.4371 32.1172 33.3236 30.1202 35.7192 30.0526C38.1134 29.9843 40.1105 31.8715 40.1781 34.2664Z" fill="#E8B499"/>
<path d="M33.3779 33.7783C33.3779 33.7783 35.1032 32.9382 36.7474 35.9352" stroke="#C47268" stroke-width="0.6887" stroke-miterlimit="10" stroke-linecap="round" stroke-linejoin="round"/>
<path d="M56.0176 34.3892C56.0176 36.7856 57.9597 38.7277 60.356 38.7277C62.7524 38.7277 64.6945 36.7856 64.6945 34.3892C64.6945 31.9929 62.7524 30.0508 60.356 30.0508C57.9604 30.0508 56.0176 31.9929 56.0176 34.3892Z" fill="#E8B499"/>
<path d="M62.801 33.7079C62.801 33.7079 61.0525 32.9164 59.4941 35.9592" stroke="#C47268" stroke-width="0.6887" stroke-miterlimit="10" stroke-linecap="round" stroke-linejoin="round"/>
<path d="M53.664 44.3832C53.664 44.3832 51.2177 46.1091 48.9889 46.5351C46.7602 46.9612 44.5927 45.6676 44.5653 45.6514C44.5378 45.6359 41.9626 44.1543 41.9626 44.1543L40.8965 58.4344L41.1852 58.6724C44.9645 61.7898 50.4128 61.8271 54.2344 58.7611L54.7935 58.3126L53.664 44.3832Z" fill="#E8B499"/>
<path d="M40.8965 42.6523C40.8965 42.6523 43.3273 50.6096 48.9213 50.5216C53.5196 50.449 54.2611 42.6523 54.2611 42.6523H40.8965Z" fill="#1E0B02"/>
<path d="M59.8133 26.8353C59.8379 31.7392 59.1591 35.9749 58.4753 38.9817C57.8057 41.9259 55.2157 43.9906 52.5018 45.6581L52.0074 45.9616C49.1358 47.7262 46.7613 47.7861 43.8277 46.1144C40.8694 44.4286 38.1189 42.1963 37.4675 39.0437C36.2824 33.3102 36.1239 26.9543 36.1239 26.9543C36.1239 26.9543 34.4586 13.689 47.2352 13.865C60.0118 14.0425 59.8133 26.8353 59.8133 26.8353Z" fill="#E8B499"/>
<path d="M43.4903 30.7232C43.4903 31.2943 43.0277 31.7569 42.4566 31.7569C41.8855 31.7569 41.4229 31.2943 41.4229 30.7232C41.4229 30.1521 41.8862 29.6895 42.4566 29.6895C43.027 29.6895 43.4903 30.1521 43.4903 30.7232Z" fill="#1E0B02"/>
<path d="M53.6358 30.7232C53.6358 31.2943 53.1732 31.7569 52.6021 31.7569C52.031 31.7569 51.5684 31.2943 51.5684 30.7232C51.5684 30.1521 52.0317 29.6895 52.6021 29.6895C53.1732 29.6895 53.6358 30.1521 53.6358 30.7232Z" fill="#1E0B02"/>
<path d="M46.5908 33.4277V35.0847H47.9323" stroke="#C47268" stroke-width="0.6887" stroke-miterlimit="10" stroke-linecap="round" stroke-linejoin="round"/>
<path d="M38.6045 26.3551L45.3597 25.746C45.3597 25.746 44.7548 23.9954 42.0233 24.2792C39.2291 24.57 38.6045 26.3551 38.6045 26.3551Z" fill="black"/>
<path d="M56.0169 26.3551L49.2617 25.746C49.2617 25.746 49.8666 23.9954 52.5981 24.2792C55.3923 24.57 56.0169 26.3551 56.0169 26.3551Z" fill="black"/>
<path d="M44.2783 37.4473H50.9427C50.9427 37.4473 50.6293 39.4887 47.5119 39.4887C44.3938 39.4894 44.2783 37.4473 44.2783 37.4473Z" fill="white"/>
<path d="M36.558 33.2363C36.558 33.2363 37.0587 16.9873 36.8509 16.5254C36.8509 16.5254 31.0893 21.8483 36.558 33.2363Z" fill="#1E0B02"/>
<path d="M59.3315 33.1171L58.4668 15.4746C58.4668 15.4746 64.0066 20.9792 59.3315 33.1171Z" fill="#1E0B02"/>
<path d="M41.9047 15.082C41.9047 15.082 37.9409 16.1559 38.0761 20.0479C38.2113 23.9399 35.579 27.765 35.579 27.765L34.377 23.8758C34.377 23.8758 33.4489 16.6277 41.9047 15.082Z" fill="#1E0B02"/>
<path d="M40.9044 15.4023C40.9044 15.4023 43.8725 13.7186 46.8188 17.4233C49.3349 20.5871 55.9697 23.8454 59.8976 20.7442C59.8976 20.7442 57.3956 11.7891 47.6336 11.9715C37.8715 12.1539 40.9044 15.4023 40.9044 15.4023Z" fill="#1E0B02"/>
<path d="M81.2999 88.54H14.1211C15.3464 83.4558 16.6069 78.935 17.8533 75.4141C19.6982 70.2172 22.353 67.1752 24.55 65.4429C26.74 63.7036 28.4723 63.267 28.4723 63.267L33.134 61.3164L62.625 61.3446L66.9487 63.267C66.9487 63.267 73.8778 65.0133 77.5677 75.4141C78.8141 78.935 80.0746 83.4558 81.2999 88.54Z" fill="#EF758D"/>
<path d="M48.2355 55.1055L62.6282 61.3445C62.6282 61.3445 47.8404 74.7084 33.1357 61.3149L48.2355 55.1055Z" fill="#E8B499"/>
<path d="M33.1357 61.3145C33.1357 61.3145 38.2594 67.3767 47.8447 67.3767C57.43 67.3767 62.6282 61.3447 62.6282 61.3447" stroke="white" stroke-width="1.9384" stroke-miterlimit="10"/>
</g>
</svg>
